<?xml version="1.0" encoding="UTF-8" standalone="no"?>
<!-- Generator: Adobe Illustrator 12.0.1, SVG Export Plug-In . SVG Version: 6.00 Build 51448)  -->

<svg
   xmlns:dc="http://purl.org/dc/elements/1.1/"
   xmlns:cc="http://creativecommons.org/ns#"
   xmlns:rdf="http://www.w3.org/1999/02/22-rdf-syntax-ns#"
   xmlns:svg="http://www.w3.org/2000/svg"
   xmlns="http://www.w3.org/2000/svg"
   xmlns:sodipodi="http://sodipodi.sourceforge.net/DTD/sodipodi-0.dtd"
   xmlns:inkscape="http://www.inkscape.org/namespaces/inkscape"
   id="Layer_1"
   xml:space="preserve"
   overflow="visible"
   viewBox="0 0 457.867 588.365"
   version="1.1"
   enable-background="new 0 0 457.867 588.365"
   sodipodi:docname="1515168796.svg"
   inkscape:version="0.92.2 (5c3e80d, 2017-08-06)"
   inkscape:export-filename="./bag-of-money.png"
   inkscape:export-xdpi="176.21715"
   inkscape:export-ydpi="176.21715"><defs
     id="defs181" /><sodipodi:namedview
     pagecolor="#ffffff"
     bordercolor="#666666"
     borderopacity="1"
     objecttolerance="10"
     gridtolerance="10"
     guidetolerance="10"
     inkscape:pageopacity="0"
     inkscape:pageshadow="2"
     inkscape:window-width="1920"
     inkscape:window-height="1017"
     id="namedview179"
     showgrid="false"
     inkscape:zoom="0.80222312"
     inkscape:cx="-2.8471581"
     inkscape:cy="275.15544"
     inkscape:window-x="-8"
     inkscape:window-y="-8"
     inkscape:window-maximized="1"
     inkscape:current-layer="Layer_1" /><g
     id="g1191"
     style="fill:#f6d7cf;fill-opacity:1"><path
       sodipodi:nodetypes="cccccccccccccccc"
       inkscape:connector-curvature="0"
       id="path990"
       d="M 76.973598,223.12994 55.782486,211.13203 30.773857,207.93778 16.906144,190.17465 26.099347,174.1255 4.1291505,142.72837 12.387451,119.04419 40.746145,106.3451 84.063271,70.429282 l 29.137779,14.490981 4.58442,-1.735104 3.40298,0.880118 13.39163,15.622223 -2.09668,3.4244 13.17358,28.44989 z"
       style="fill:#f6d7cf;fill-opacity:1;stroke:none;stroke-width:1px;stroke-linecap:butt;stroke-linejoin:miter;stroke-opacity:1" /><path
       id="path1137"
       d="M 68.580078 272.68945 C 60.185078 276.50845 45.553078 285.37845 37.580078 296.68945 C 30.907078 306.15645 29.322078 320.36645 32.580078 332.68945 C 32.965078 334.14445 31.963078 336.33145 32.580078 337.68945 C 36.376078 346.04045 46.212078 348.96745 52.580078 356.68945 C 62.652078 357.48245 71.089078 358.66845 79.580078 358.68945 L 83.580078 353.68945 C 79.404078 358.32845 71.339078 354.41745 66.580078 353.68945 C 63.336078 353.19345 59.326078 353.17545 55.580078 352.68945 C 55.460078 349.80945 51.315078 350.95445 51.580078 347.68945 C 52.384078 347.16045 53.204078 346.64645 54.580078 346.68945 C 61.986078 349.89945 78.584078 346.50945 83.580078 353.68945 L 83.580078 345.68945 C 73.894078 345.53245 56.198078 344.56945 49.580078 340.68945 L 49.580078 334.68945 C 59.895078 336.68945 71.182078 338.48045 83.580078 340.68945 L 86.580078 337.68945 C 79.814078 338.75245 73.652078 332.87245 69.580078 331.68945 C 58.775078 328.55045 45.976078 329.29545 47.580078 316.68945 C 56.986078 314.02545 64.474078 318.05545 73.580078 313.68945 C 63.532078 307.46745 41.977078 313.38645 45.580078 296.68945 C 47.818078 286.31645 65.389078 283.73245 68.580078 272.68945 z "
       style="opacity:1;fill:#f6d7cf;fill-opacity:1;stroke:none;stroke-width:22;stroke-linecap:butt;stroke-linejoin:bevel;stroke-miterlimit:4;stroke-dasharray:none;stroke-dashoffset:220;stroke-opacity:1;paint-order:stroke fill markers" /><path
       id="path22"
       d="M 417.07422 169.57031 C 416.30922 169.54361 415.48195 169.57933 414.58008 169.68945 C 413.14008 175.79945 417.42008 176.18945 420.58008 177.68945 C 419.82608 185.93545 412.12808 187.23745 408.58008 192.68945 C 415.93708 191.93445 426.56108 186.08645 427.58008 175.68945 C 424.69608 173.0312 422.42918 169.75722 417.07422 169.57031 z M 429.61523 189.64648 C 419.84095 189.62798 415.9372 202.59814 402.58008 201.68945 C 398.1978 211.34299 402.31049 214.70396 405.58008 218.68945 C 407.80208 203.53845 429.88108 203.04345 430.58008 189.68945 C 430.25205 189.66095 429.93053 189.64708 429.61523 189.64648 z M 405.58008 218.68945 C 410.02606 224.23611 414.68272 228.56082 420.58008 225.68945 C 420.27108 214.04745 432.11208 214.55445 435.58008 206.68945 C 423.20008 200.06945 417.15808 221.25745 405.58008 218.68945 z M 420.58008 225.68945 C 419.49044 230.09008 419.68283 233.55056 422.98242 234.73242 C 425.51938 229.05552 430.44719 225.77052 435.58008 222.68945 C 439.98208 222.72345 441.85408 226.48145 443.58008 221.68945 C 434.61008 214.70245 428.62708 225.36545 420.58008 225.68945 z "
       style="clip-rule:evenodd;fill:#f6d7cf;fill-rule:evenodd;fill-opacity:1" /></g><path
     style="opacity:1;fill:#febd01;fill-opacity:1;stroke:none;stroke-width:22;stroke-linecap:butt;stroke-linejoin:bevel;stroke-miterlimit:4;stroke-dasharray:none;stroke-dashoffset:220;stroke-opacity:1;paint-order:stroke fill markers"
     d="m 136.02824,458.41361 -11.84209,3.11634 -39.265885,62.63844 22.281835,24.15163 20.56784,2.96052 28.20288,-11.68627 39.26588,-47.36837 -0.31163,-18.85386 z"
     id="path1144"
     inkscape:connector-curvature="0" /><path
     style="opacity:1;fill:#af6d50;fill-opacity:1;stroke:none;stroke-width:22;stroke-linecap:butt;stroke-linejoin:bevel;stroke-miterlimit:4;stroke-dasharray:none;stroke-dashoffset:220;stroke-opacity:1;paint-order:stroke fill markers"
     d="m 319.08008,94.320312 -46.27539,3.966797 -54.19336,-9.470703 -9.81641,2.804688 19.47656,8.257812 79.12891,9.867184 18.72461,-6.90625 4.83008,-9.972652 z"
     id="path1039"
     inkscape:connector-curvature="0"
     sodipodi:nodetypes="ccccccccc" /><path
     inkscape:connector-curvature="0"
     style="clip-rule:evenodd;fill:#71c837;fill-opacity:1;fill-rule:evenodd"
     id="path2"
     d="m 382.58,23.688 c -0.868,3.069 -4.324,5.555 -7,7 -3.426,1.851 -7.495,1.744 -11,3 -3.211,1.151 -6.479,4.082 -10,5 -2.839,0.74 -7.125,0.154 -11,1 -5.51,1.203 -10.901,4.37 -20,3 -1.977,-3.356 -5.048,-5.619 -7,-9 -9.07,-1.07 -11.603,4.397 -20,4 -2.019,-7.352 4.572,-6.095 10,-6 5.484,-2.322 12.396,-3.501 19,-6 2.1,-0.794 3.381,-2.535 5,-3 3.246,-0.933 7.826,0.094 11,-1 1.844,-0.635 3.306,-2.629 5,-3 4.696,-1.027 13.263,-1.866 20,-2 6.12,-0.122 15.16,-0.906 16,7 z" /><path
     inkscape:connector-curvature="0"
     style="clip-rule:evenodd;fill:#71c837;fill-opacity:1;fill-rule:evenodd"
     id="path4"
     d="m 230.58,34.688 c -1.677,4.269 -8.017,5.75 -9,11 -1.104,5.894 2.704,9.034 4,15 9.1,8.567 15.113,20.22 25,28 -22.796,2.794 -27.608,-21.056 -43,-29 -0.777,-0.89 -1.075,-2.258 -1,-4 -8.474,-3.859 -13.437,-11.23 -20,-17 6.634,-6.056 17.091,-1.517 27,-2 5.63,-0.274 10.78,-1.875 17,-2 z" /><path
     inkscape:connector-curvature="0"
     style="clip-rule:evenodd;fill:#71c837;fill-opacity:1;fill-rule:evenodd"
     id="path6"
     d="m 261.58,39.688 c -0.591,4.591 0.311,7.689 2,10 -6.843,2.98 -22.596,4.912 -30,1 8.49,-8.407 15.72,-12.004 28,-11 z" /><path
     inkscape:connector-curvature="0"
     style="clip-rule:evenodd;fill:#71c837;fill-opacity:1;fill-rule:evenodd"
     id="path8"
     d="m 305.58,47.688 c -2.104,2.896 -1.68,8.32 -6,9 -0.994,11.673 -10.97,14.363 -11,27 5.51,0.51 8.357,-1.643 8,-7 8.402,-6.264 7.883,-21.451 17,-27 14.876,4.526 32.017,1.816 47,-1 -12.476,13.525 -25.433,26.567 -38,40 -19.181,6.801 -37.835,5.728 -62,4 -0.597,-14.07 -11.438,-17.895 -18,-26 18.724,-2.276 37.229,-4.771 48,-15 4.802,0.135 9.098,-0.235 10,-4 z" /><path
     inkscape:connector-curvature="0"
     style="clip-rule:evenodd;fill:#af6d50;fill-opacity:1;fill-rule:evenodd"
     id="path10"
     d="m 406.58,76.688 c -2.885,6.628 -12.751,6.125 -20,8 -3.116,0.806 -6.222,1.164 -10,2 -5.207,1.152 -16.167,4.042 -25,1 12.16,-9.198 36.68,-11.282 55,-11 z" /><path
     style="clip-rule:evenodd;fill-rule:evenodd"
     inkscape:connector-curvature="0"
     id="path12"
     d="m 113.58,127.69 h 3 c 1.102,4.238 1.182,8.307 0,12 0.756,2.177 3.932,7.038 0,8 -5.02,-3.22 -4.11,-13.41 -3,-20 z" /><path
     style="clip-rule:evenodd;fill-rule:evenodd"
     inkscape:connector-curvature="0"
     id="path14"
     d="m 81.581,135.69 c -4.529,6.804 -10.863,11.804 -14,20 -7.134,1.8 -7.909,-2.757 -11,-5 1.217,-11 17.398,-32.17 25,-15 z" /><path
     style="clip-rule:evenodd;fill-rule:evenodd"
     inkscape:connector-curvature="0"
     id="path16"
     d="m 130.58,137.69 c -2.492,0.841 -5.357,1.309 -9,1 -5.85,-12.24 11.11,-13.05 9,-1 z" /><path
     style="clip-rule:evenodd;fill-rule:evenodd"
     inkscape:connector-curvature="0"
     id="path18"
     d="m 86.581,161.69 c -3.817,0.484 -6.383,-0.284 -8,-2 -0.351,-12.71 15.434,-8.67 8,2 z" /><path
     style="clip-rule:evenodd;fill-rule:evenodd"
     inkscape:connector-curvature="0"
     id="path20"
     d="m 99.581,159.69 c -2.582,4.674 -7.998,7.593 -12,12 -2.433,2.679 -4.599,10.215 -10,7 1.817,-4.546 6.996,-11.213 11,-15 2.086,-1.97 6.017,-3.74 11,-4 z" /><path
     style="clip-rule:evenodd;fill-rule:evenodd"
     inkscape:connector-curvature="0"
     id="path24"
     d="m 42.581,196.69 c -0.802,-3.469 1.489,-3.844 1,-7 -4.97,-2.886 -10.939,0.757 -17,0 0.16,-10.01 26.119,-8.944 24,2 -0.595,3.07 -2.645,5.01 -8,5 z" /><path
     style="clip-rule:evenodd;fill-rule:evenodd"
     inkscape:connector-curvature="0"
     id="path26"
     d="m 254.58,191.69 c 2.888,9.112 5.905,18.095 11,25 22.128,-3.212 32.576,-1.929 53,3 -0.232,5.899 6.881,4.453 8,9 1.85,7.517 -3.982,7.351 -6,11 -22.242,4.027 -26.601,-19.445 -51,-9 4.856,10.143 6.76,23.24 13,32 15.997,-2.038 34.773,1.283 46,8 8.051,4.816 15.826,10.01 14,23 -0.596,4.237 -1.705,11.951 -4,17 -0.607,1.336 -2.84,1.454 -4,3 -2.067,2.754 -2.843,7.608 -4,9 -3.662,4.406 -9.054,4.237 -12,11 -5.655,-0.989 -5.549,3.784 -9,5 1.322,5.423 2.53,14.061 7,19 -2.168,7.587 4.822,13.831 -4,16 -7.483,-6.184 -6.592,-20.742 -11,-30 -11.185,1.289 -20.331,4.819 -29,6 -0.699,11.957 10.339,19.682 5,30 -15.027,0.1 -6.81,-23.347 -16,-30 -21.748,1.457 -38.962,0.066 -51,-10 -3.415,-6.843 -2.022,-15.4 5,-17 12.745,-2.903 30.492,23.897 44,14 -4.329,-11.338 -4.752,-26.582 -11,-36 -29.821,5.843 -59.263,-11.944 -49,-46 5.776,-3.756 8.562,-10.951 14,-15 3.319,-2.472 7.916,-1.992 10,-6 0.21,-13.578 -14.452,-20.564 -9,-33 12.283,2.383 8.72,20.613 16,28 10.712,-0.955 16.723,-6.61 26,-9 -1.428,-10.351 -12.2,-17.016 -7,-28 z m -19,51 c 2.922,10.745 6.88,20.453 13,28 9.265,-3.381 17.006,-2.779 26,-7 -2.176,-11.491 -9.584,-17.749 -11,-30 -12.77,-0.44 -19.44,5.23 -28,9 z m -8,4 c -6.653,7.014 -17.92,9.414 -17,24 8.176,6.52 19.112,2.86 29,2 -2.15,-10.51 -5.92,-19.41 -12,-26 z m 66,50 c 6.078,7.255 7.316,19.351 12,28 12.412,-4.569 29.124,-16.369 20,-33 -9.47,-1.69 -29.59,-5.91 -32,5 z m -37,7 c 5.609,9.391 4.86,25.14 12,33 10.073,-1.985 20.475,-2.53 29,-8 -2.111,-9.556 -4.606,-18.727 -9,-26 -0.236,-4.43 -0.722,-8.611 -5,-9 -7.18,2.75 -23.07,1.16 -27,10 z" /><path
     inkscape:connector-curvature="0"
     style="clip-rule:evenodd;fill:#71c837;fill-opacity:1;fill-rule:evenodd"
     id="path28"
     d="m 263.58,233.69 c 1.416,12.251 8.824,18.509 11,30 -8.994,4.221 -16.735,3.619 -26,7 -6.12,-7.547 -10.078,-17.255 -13,-28 8.56,-3.77 15.23,-9.44 28,-9 z" /><path
     inkscape:connector-curvature="0"
     style="clip-rule:evenodd;fill:#71c837;fill-opacity:1;fill-rule:evenodd"
     id="path30"
     d="m 239.58,272.69 c -9.888,0.86 -20.824,4.52 -29,-2 -0.92,-14.586 10.347,-16.986 17,-24 6.08,6.59 9.85,15.49 12,26 z" /><path
     inkscape:connector-curvature="0"
     style="clip-rule:evenodd;fill:#71c837;fill-opacity:1;fill-rule:evenodd"
     id="path32"
     d="m 325.58,291.69 c 9.124,16.631 -7.588,28.431 -20,33 -4.684,-8.649 -5.922,-20.745 -12,-28 2.41,-10.91 22.53,-6.69 32,-5 z" /><path
     inkscape:connector-curvature="0"
     style="clip-rule:evenodd;fill:#71c837;fill-opacity:1;fill-rule:evenodd"
     id="path34"
     d="m 283.58,293.69 c 4.278,0.389 4.764,4.57 5,9 4.394,7.273 6.889,16.444 9,26 -8.525,5.47 -18.927,6.015 -29,8 -7.14,-7.86 -6.391,-23.609 -12,-33 3.93,-8.84 19.82,-7.25 27,-10 z" /><path
     style="clip-rule:evenodd;fill-rule:evenodd"
     inkscape:connector-curvature="0"
     id="path36"
     d="m 49.581,334.69 c 10.315,2 21.602,3.791 34,6 v 5 c -9.686,-0.157 -27.382,-1.12 -34,-5 z" /><path
     style="clip-rule:evenodd;fill-rule:evenodd"
     inkscape:connector-curvature="0"
     id="path38"
     d="m 83.581,353.69 c -4.176,4.639 -12.241,0.728 -17,0 -3.244,-0.496 -7.254,-0.514 -11,-1 -0.12,-2.88 -4.265,-1.735 -4,-5 0.804,-0.529 1.624,-1.043 3,-1 7.406,3.21 24.004,-0.18 29,7 z" /><path
     style="clip-rule:evenodd;fill-rule:evenodd"
     inkscape:connector-curvature="0"
     id="path40"
     d="m 122.58,353.69 c 3.547,5.909 -1.77,19.959 -10,17 -0.45,-9.45 1.56,-16.44 10,-17 z" /><path
     style="clip-rule:evenodd;fill-rule:evenodd"
     inkscape:connector-curvature="0"
     id="path42"
     d="m 217.58,393.69 c -0.473,3.14 2.691,2.642 3,5 -1.992,4.342 -3.847,8.819 -11,8 -3,-7.37 2,-11.71 8,-13 z" /><path
     style="clip-rule:evenodd;fill-rule:evenodd"
     inkscape:connector-curvature="0"
     id="path44"
     d="m 153.58,394.69 c 3.514,5.079 0.737,13.466 -4,16 -8.08,-2.02 -3.44,-17.18 4,-16 z" /><g
     id="g1164"
     style="fill:#af6d50;fill-opacity:1"><path
       d="m 369.58,554.69 c -3.815,0.148 -4.815,-2.518 -8,-3 1.809,-6.858 7.973,-9.36 13,-13 0.502,-4.426 3.291,-9.256 4,-13 0.385,-2.029 -1.979,-2.317 -2,-3 -0.099,-3.081 5.696,-9.708 8,-13 4.492,-6.42 7.819,-15.444 18,-17 5.099,4.678 6.936,14.702 3,24 -0.319,0.755 -2.722,1.299 -3,2 -1.101,2.773 -0.303,3.454 -2,6 -0.547,0.82 -1.559,1.337 -2,2 -2.876,4.319 -1.884,4.103 -5,7 -3.168,2.945 -10.534,7.623 -16,10 -1.3,5.03 -5.36,7.3 -8,11 z"
       id="path96"
       inkscape:connector-curvature="0"
       style="clip-rule:evenodd;fill:#af6d50;fill-rule:evenodd;fill-opacity:1" /><path
       d="m 126.58,569.69 c -9.844,-0.49 -13.259,-7.408 -17,-14 1.992,-4.812 6.638,0.089 10,0 -0.16,6.71 8.79,8.92 7,14 z"
       id="path160"
       inkscape:connector-curvature="0"
       style="clip-rule:evenodd;fill:#af6d50;fill-rule:evenodd;fill-opacity:1" /><path
       d="m 371.58,564.69 c -2.236,6.764 -4.21,13.79 -15,12 -8.92,-9.61 7.7,-24.41 15,-12 z"
       id="path162"
       inkscape:connector-curvature="0"
       style="clip-rule:evenodd;fill:#af6d50;fill-rule:evenodd;fill-opacity:1" /></g><path
     style="clip-rule:evenodd;fill:#000000;fill-opacity:0.64646465;fill-rule:evenodd;stroke-width:0.99999994"
     d="m 328.57998,583.20427 c -34.27774,7.76608 -69.8138,0.44672 -104.50626,4.11904 -19.4269,1.65992 -63.87274,5.3874 -59.08436,-20.23532 26.94831,-5.88553 52.9212,3.14309 79.28968,0.92135 26.36847,-2.22173 70.69785,-12.42555 84.30094,15.19493 z"
     id="path164"
     inkscape:connector-curvature="0"
     sodipodi:nodetypes="ccczc" /><path
     inkscape:connector-curvature="0"
     style="clip-rule:evenodd;fill:#71c837;fill-opacity:1;fill-rule:evenodd"
     id="path166"
     d="m 311.58,12.688 c -4.55,6.124 -20.634,9.362 -21,23 -2.359,8.308 -12.565,8.768 -19,13 -4.727,-2.94 -3.817,-11.516 -5,-18 -8.409,-6.805 -21.354,-7.068 -34,-6 -15.781,1.333 -34.57,5.282 -51,4 0.21,-4.79 7.782,-2.218 9,-6 17.679,-1.321 30.478,-7.522 48,-9 3.512,2.822 7.745,4.921 11,8 16.73,-1.252 45.38,-9.001 62,-9 z" /><path
     style="clip-rule:evenodd;fill:#9b9b9b;fill-rule:evenodd;fill-opacity:1"
     inkscape:connector-curvature="0"
     id="path168"
     d="m 40.581,83.688 c 0.782,4.802 -2.251,14.401 -3,21 -11.326,-2.92 0.076,-16.76 3,-21.002 z" /><path
     style="opacity:1;fill:#febd01;fill-opacity:1;stroke:none;stroke-width:22;stroke-linecap:butt;stroke-linejoin:bevel;stroke-miterlimit:4;stroke-dasharray:none;stroke-dashoffset:220;stroke-opacity:1;paint-order:stroke fill markers"
     d="m 254.7608,481.31871 62.63843,58.74301 27.89124,-18.69804 18.38641,3.11634 6.85595,-20.56784 -23.68419,-42.53805 -90.52967,15.5817 z"
     id="path1142"
     inkscape:connector-curvature="0" /><path
     style="clip-rule:evenodd;fill:#71c837;fill-opacity:1;fill-rule:evenodd"
     d="M 210.58008 99.689453 C 207.18508 102.29445 204.00608 105.11545 199.58008 106.68945 C 193.04008 115.14945 183.33108 120.44045 177.58008 129.68945 C 172.20008 129.30945 172.74708 134.85645 167.58008 134.68945 C 155.84708 145.95645 145.95208 159.06145 133.58008 169.68945 C 132.56008 171.00345 132.60008 173.37545 131.58008 174.68945 C 124.88108 179.24845 120.50608 186.79045 116.58008 192.68945 C 110.49208 201.83645 102.84508 212.03245 96.580078 219.68945 C 92.180078 225.06745 88.613078 229.42545 85.580078 235.68945 C 87.044078 236.55945 88.749078 237.18645 88.580078 239.68945 C 86.290078 246.73345 81.875078 251.65145 77.580078 256.68945 L 77.580078 263.68945 C 74.688078 264.13045 73.021078 265.79745 72.580078 268.68945 C 73.014078 278.65845 69.823078 280.63045 72.580078 288.68945 C 69.252078 292.02845 68.945078 298.38745 66.580078 302.68945 C 71.771078 308.50545 88.001078 308.59145 82.580078 321.68945 C 76.808078 322.21145 67.785078 317.78645 65.580078 323.68945 C 71.654078 331.50145 85.152078 326.03645 86.580078 337.68945 L 83.580078 340.68945 L 83.580078 345.68945 L 83.580078 353.68945 L 79.580078 358.68945 C 78.972078 362.74845 76.512078 364.95445 77.580078 370.68945 C 84.185078 375.75145 83.757078 387.84545 93.580078 389.68945 C 93.909078 392.02745 94.782078 393.82145 95.580078 395.68945 C 97.902078 397.03445 101.25808 397.34445 103.58008 398.68945 C 103.71408 403.22145 106.02708 405.57645 106.58008 409.68945 C 113.42308 414.12945 123.16408 419.33845 128.58008 423.68945 C 133.75908 427.84945 140.25808 429.80845 145.58008 432.68945 C 147.55208 433.75645 149.48808 436.59545 151.58008 437.68945 C 156.10108 440.05145 162.60108 441.80445 166.58008 443.68945 C 168.09408 444.40645 169.48108 446.23945 170.58008 446.68945 C 173.35308 447.82445 176.52708 446.68545 179.58008 447.68945 C 180.70908 448.06045 181.37008 450.14545 182.58008 450.68945 C 198.14308 457.69145 212.38908 459.50445 230.58008 460.68945 C 238.03408 467.15245 248.74508 463.83445 257.58008 464.68945 C 258.88808 464.81645 258.50708 466.34645 259.58008 466.68945 C 259.74308 466.74145 264.16408 466.65345 264.58008 466.68945 C 273.87408 467.48845 281.24908 465.35545 290.58008 464.68945 C 293.85808 464.45545 297.29108 465.23445 300.58008 464.68945 C 304.64908 464.01545 308.46808 461.42645 312.58008 460.68945 C 315.01808 460.25145 318.28308 460.95545 320.58008 460.68945 C 334.10508 459.12745 345.50908 451.12445 357.58008 449.68945 C 361.22108 445.33045 366.76508 442.87445 373.58008 441.68945 C 375.83508 439.04345 378.55208 437.59545 381.58008 435.68945 C 383.72608 434.33845 390.12408 431.83845 391.58008 430.68945 C 392.75908 429.75845 393.28608 426.91745 394.58008 425.68945 C 400.76108 419.82445 415.80008 409.38645 415.58008 403.68945 C 415.52308 402.20645 417.21808 403.38945 417.58008 402.68945 C 419.44108 399.09745 421.69508 394.27645 422.58008 390.68945 C 425.93308 389.37545 426.73408 385.51045 429.58008 383.68945 C 429.09108 377.21445 433.97508 373.45945 435.58008 370.68945 C 436.30808 369.43345 434.98208 367.02445 435.58008 365.68945 C 435.82308 365.14545 438.18408 364.71145 438.58008 363.68945 C 439.64508 360.94145 440.35408 356.57245 441.58008 352.68945 C 443.93008 345.24645 446.84408 339.97345 447.58008 332.68945 C 448.18008 326.75145 449.27508 323.01545 449.58008 319.68945 C 451.18808 302.12645 448.63408 287.98245 447.58008 273.68945 C 446.69108 261.64345 445.16508 256.97245 442.58008 248.68945 C 441.13508 244.05945 441.67808 238.94845 436.58008 237.68945 C 434.76708 240.54345 430.47108 240.91345 426.58008 241.68945 C 424.90808 240.02745 422.53108 239.07145 422.58008 235.68945 C 422.70506 235.36139 422.84249 235.04553 422.98242 234.73242 C 419.68283 233.55056 419.49044 230.09008 420.58008 225.68945 C 414.68272 228.56082 410.02606 224.23611 405.58008 218.68945 C 402.31049 214.70396 398.1978 211.34299 402.58008 201.68945 C 402.34108 200.26245 400.93408 200.00245 400.58008 198.68945 C 400.18208 188.29145 409.42108 187.52945 411.58008 179.68945 C 408.71308 173.22345 401.61708 170.98545 399.58008 163.68945 C 394.03008 157.80945 386.60008 153.48945 380.58008 147.68945 C 379.62808 146.77145 380.48008 144.70645 379.58008 143.68945 C 379.00208 143.03645 376.24308 143.26945 375.58008 142.68945 C 374.11008 141.40545 374.65108 139.63245 373.58008 138.68945 C 370.81708 136.25645 366.89008 135.38245 363.58008 132.68945 C 361.23808 130.78445 360.11808 127.52845 357.58008 125.68945 C 356.07808 124.60145 352.07608 123.69045 348.58008 121.68945 C 347.14408 120.86845 346.19808 119.68945 344.58008 118.68945 C 343.30908 117.90345 340.74108 117.54445 339.58008 116.68945 C 334.71308 113.10545 331.45908 105.85945 326.58008 105.68945 C 322.91008 105.56245 319.43008 110.44945 315.58008 111.68945 C 301.32808 116.28045 280.01108 112.69745 260.58008 111.68945 C 238.76708 110.55845 224.14008 106.25645 210.58008 99.689453 z M 402.58008 201.68945 C 403.00514 201.71837 403.41977 201.7327 403.82617 201.73438 C 403.41992 201.73269 403.00497 201.71836 402.58008 201.68945 z M 428.6875 189.68359 C 428.51115 189.69843 428.34065 189.72683 428.16797 189.75 C 428.34634 189.72609 428.52279 189.69861 428.70508 189.68359 C 428.69933 189.68407 428.69324 189.68311 428.6875 189.68359 z M 427.83594 189.79102 C 427.66946 189.81866 427.50703 189.85753 427.34375 189.89258 C 427.50719 189.8575 427.6693 189.81868 427.83594 189.79102 z M 426.97461 189.9707 C 426.84511 190.0032 426.71944 190.0451 426.5918 190.08203 C 426.71953 190.04506 426.84501 190.00323 426.97461 189.9707 z M 426.13477 190.2168 C 426.0372 190.24945 425.94226 190.2891 425.8457 190.32422 C 425.9422 190.28912 426.03727 190.24943 426.13477 190.2168 z M 425.32227 190.52344 C 425.23348 190.56031 425.14661 190.60179 425.05859 190.64062 C 425.14661 190.60179 425.23348 190.56031 425.32227 190.52344 z M 424.57812 190.85938 C 424.17863 191.05403 423.78926 191.27799 423.40234 191.50781 C 423.78962 191.27774 424.17825 191.05421 424.57812 190.85938 z M 249.58008 191.68945 L 254.58008 191.68945 C 257.46808 200.80145 260.48508 209.78445 265.58008 216.68945 C 287.70808 213.47745 298.15608 214.76045 318.58008 219.68945 C 318.34808 225.58845 325.46108 224.14245 326.58008 228.68945 C 328.43008 236.20645 322.59808 236.04045 320.58008 239.68945 C 298.33808 243.71645 293.97908 220.24445 269.58008 230.68945 C 274.43608 240.83245 276.34008 253.92945 282.58008 262.68945 C 298.57708 260.65145 317.35308 263.97245 328.58008 270.68945 C 336.63108 275.50545 344.40608 280.69945 342.58008 293.68945 C 341.98408 297.92645 340.87508 305.64045 338.58008 310.68945 C 337.97308 312.02545 335.74008 312.14345 334.58008 313.68945 C 332.51308 316.44345 331.73708 321.29745 330.58008 322.68945 C 326.91808 327.09545 321.52608 326.92645 318.58008 333.68945 C 312.92508 332.70045 313.03108 337.47345 309.58008 338.68945 C 310.90208 344.11245 312.11008 352.75045 316.58008 357.68945 C 314.41208 365.27645 321.40208 371.52045 312.58008 373.68945 C 305.09708 367.50545 305.98808 352.94745 301.58008 343.68945 C 290.39508 344.97845 281.24908 348.50845 272.58008 349.68945 C 271.88108 361.64645 282.91908 369.37145 277.58008 379.68945 C 262.55308 379.78945 270.77008 356.34245 261.58008 349.68945 C 239.83208 351.14645 222.61808 349.75545 210.58008 339.68945 C 207.16508 332.84645 208.55808 324.28945 215.58008 322.68945 C 228.32508 319.78645 246.07208 346.58645 259.58008 336.68945 C 255.25108 325.35145 254.82808 310.10745 248.58008 300.68945 C 218.75908 306.53245 189.31708 288.74545 199.58008 254.68945 C 205.35608 250.93345 208.14208 243.73845 213.58008 239.68945 C 216.89908 237.21745 221.49608 237.69745 223.58008 233.68945 C 223.79008 220.11145 209.12808 213.12545 214.58008 200.68945 C 226.86308 203.07245 223.30008 221.30245 230.58008 228.68945 C 241.29208 227.73445 247.30308 222.07945 256.58008 219.68945 C 255.15208 209.33845 244.38008 202.67345 249.58008 191.68945 z M 422.64258 191.98633 C 422.40609 192.14135 422.16927 192.296 421.93555 192.46094 C 422.16915 192.29609 422.40622 192.14127 422.64258 191.98633 z M 421.12109 193.05664 C 420.93441 193.19733 420.74467 193.33542 420.55859 193.48047 C 420.74524 193.33497 420.93383 193.19775 421.12109 193.05664 z M 417.77344 195.73242 C 417.48784 195.96504 417.19502 196.1947 416.9043 196.42578 C 417.19665 196.19341 417.48626 195.96634 417.77344 195.73242 z M 416.17969 196.99414 C 415.90077 197.20862 415.61215 197.41628 415.32617 197.625 C 415.61263 197.41594 415.9003 197.20898 416.17969 196.99414 z M 414.60156 198.14648 C 414.32313 198.33859 414.03305 198.51805 413.74609 198.70117 C 414.03309 198.51804 414.3231 198.3386 414.60156 198.14648 z M 412.87109 199.25 C 412.81621 199.28182 412.76032 199.31235 412.70508 199.34375 C 412.76031 199.31235 412.81621 199.28182 412.87109 199.25 z M 411.14844 200.14648 C 411.00621 200.2119 410.86155 200.27375 410.7168 200.33594 C 410.86153 200.27375 411.00622 200.21189 411.14844 200.14648 z M 410.23047 200.53906 C 410.08159 200.59793 409.929 200.65183 409.77734 200.70703 C 409.92894 200.65185 410.08165 200.5979 410.23047 200.53906 z M 409.30273 200.87695 C 409.10717 200.9417 408.90545 200.99838 408.70508 201.05664 C 408.9056 200.99834 409.10703 200.94175 409.30273 200.87695 z M 408.29688 201.17578 C 408.11668 201.22323 407.93032 201.26278 407.74609 201.30469 C 407.93052 201.26274 408.11648 201.22328 408.29688 201.17578 z M 407.23047 201.41992 C 407.05577 201.45385 406.87567 201.47907 406.69727 201.50781 C 406.87527 201.47914 407.05616 201.45376 407.23047 201.41992 z M 406.1543 201.59375 C 405.95106 201.61969 405.73939 201.63338 405.53125 201.65234 C 405.73962 201.63335 405.95085 201.61973 406.1543 201.59375 z M 405.00586 201.70117 C 404.76472 201.71579 404.51544 201.71772 404.26758 201.72266 C 404.5153 201.71772 404.76485 201.71579 405.00586 201.70117 z M 432.66211 224.51367 C 432.35428 224.71427 432.04275 224.91128 431.74023 225.11719 C 432.04286 224.91139 432.35419 224.71418 432.66211 224.51367 z M 430.74023 225.83203 C 430.46651 226.02957 430.18918 226.22377 429.92188 226.42773 C 430.1893 226.2239 430.46639 226.02945 430.74023 225.83203 z M 428.91016 227.25 C 428.67123 227.44794 428.42711 227.64064 428.19531 227.8457 C 428.42724 227.64076 428.67111 227.44782 428.91016 227.25 z M 426.76562 229.20703 C 426.73207 229.24184 426.69935 229.27748 426.66602 229.3125 C 426.69937 229.27749 426.73205 229.24182 426.76562 229.20703 z M 426.06836 229.96484 C 426.01147 230.02967 425.95458 230.09458 425.89844 230.16016 C 425.9546 230.09462 426.01145 230.02963 426.06836 229.96484 z M 425.36719 230.80664 C 425.31073 230.87835 425.25478 230.95083 425.19922 231.02344 C 425.25488 230.95076 425.31063 230.87842 425.36719 230.80664 z M 424.68359 231.72656 C 424.64727 231.77875 424.61204 231.83211 424.57617 231.88477 C 424.612 231.8322 424.6473 231.77867 424.68359 231.72656 z M 424.06445 232.67578 C 424.03661 232.72147 424.00993 232.76843 423.98242 232.81445 C 424.00992 232.76848 424.03662 232.72142 424.06445 232.67578 z M 122.57812 353.68945 C 126.12512 359.59845 120.80813 373.64845 112.57812 370.68945 C 112.12812 361.23945 114.13813 354.24945 122.57812 353.68945 z M 217.57812 393.68945 C 217.10512 396.82945 220.26913 396.33145 220.57812 398.68945 C 218.58613 403.03145 216.73112 407.50845 209.57812 406.68945 C 206.57812 399.31945 211.57812 394.97945 217.57812 393.68945 z M 152.89062 394.62695 C 153.11735 394.63281 153.34563 394.65258 153.57812 394.68945 C 157.09213 399.76845 154.31512 408.15545 149.57812 410.68945 C 141.75062 408.73258 145.86204 394.44527 152.89062 394.62695 z "
     id="path170" /><path
     style="clip-rule:evenodd;fill-rule:evenodd"
     d="M 304.91992 -0.001953125 C 301.88852 0.00025 298.73508 0.28175 295.58008 0.6875 C 280.35108 2.6445 266.70908 10.3085 251.58008 11.6875 C 248.68908 9.2455 246.42608 6.1745 244.58008 2.6875 C 214.98008 4.3175 190.18308 15.3075 165.58008 18.6875 C 165.55608 23.3295 162.22008 24.6605 163.58008 30.6875 C 171.74408 41.8565 184.41108 48.5235 189.58008 62.6875 C 192.61908 62.4505 194.88608 64.9625 196.58008 66.6875 C 203.70108 73.9375 208.65408 83.2515 216.58008 89.6875 C 238.81608 96.4105 266.74608 104.1415 298.58008 101.6875 C 299.99608 101.5785 301.73508 99.7545 303.58008 99.6875 C 303.90708 99.6755 305.75408 101.0485 307.58008 100.6875 C 314.35208 99.3495 320.07008 94.7235 326.58008 95.6875 C 324.79042 98.996231 321.14089 100.59944 317.17188 101.44531 C 313.08826 102.3156 308.66639 102.38424 305.58008 102.6875 C 303.49808 102.8925 301.28708 104.5455 299.58008 104.6875 C 288.78908 105.5855 277.20108 103.7785 266.58008 102.6875 C 245.57408 100.5295 225.78308 99.1205 211.58008 90.6875 C 186.43208 98.5395 169.50908 114.6165 146.58008 124.6875 C 146.19108 119.4095 142.04108 117.8935 142.58008 111.6875 C 139.59008 108.0115 135.95808 104.9765 134.58008 99.6875 C 128.57508 99.0265 129.91508 91.0185 121.58008 92.6875 C 120.10208 100.8325 127.90808 99.6925 129.58008 104.6875 C 127.08808 107.9935 116.69008 104.6255 112.58008 108.6875 C 111.80308 114.1315 114.64108 115.9595 115.58008 119.6875 C 123.00108 120.1085 129.16708 119.2745 134.58008 117.6875 C 138.10408 121.8665 142.08408 125.0715 141.58008 129.6875 C 141.18408 133.3095 136.76708 134.2205 133.58008 137.6875 C 132.55908 138.7985 132.54708 141.4505 131.58008 142.6875 C 130.10808 144.5705 126.71408 146.5635 124.58008 148.6875 C 119.47908 153.7635 119.29408 155.7545 114.58008 156.6875 C 111.25608 163.2685 104.37208 170.1195 100.58008 174.6875 C 97.178076 178.7865 95.493078 183.8705 92.580078 187.6875 C 91.071078 189.6645 88.131078 190.7635 86.580078 192.6875 C 83.554078 196.4415 82.758078 202.1775 77.580078 203.6875 C 76.710078 208.8175 73.334078 211.4415 70.580078 214.6875 C 68.473078 212.4615 64.668078 211.9335 63.580078 208.6875 C 62.607078 203.9935 66.374078 194.5605 59.580078 195.6875 C 59.018078 216.9675 23.157078 203.5635 22.580078 189.6875 C 22.409078 185.5675 25.116078 179.2715 29.580078 177.6875 C 38.271078 174.6035 41.557078 182.3345 48.580078 179.6875 C 47.816078 172.7845 38.464078 174.4705 34.580078 170.6875 C 35.261078 167.3685 41.459078 169.5665 42.580078 166.6875 C 45.665078 157.1855 35.981078 155.6055 36.580078 145.6875 C 30.752078 144.5155 28.142078 140.1255 27.580078 133.6875 C 15.946078 131.3875 15.961078 140.7345 11.580078 145.6875 C 4.5650782 130.4185 22.073078 117.7295 39.580078 120.6875 C 47.254078 118.0285 47.230078 107.6705 51.580078 101.6875 C 62.314078 103.4215 63.626078 95.7335 68.580078 91.6875 C 74.913078 96.4555 79.119078 89.4975 85.580078 88.6875 C 93.942078 93.7505 105.30408 86.1795 109.58008 84.6875 C 109.27108 87.0245 107.62208 88.8185 109.58008 90.6875 C 119.92808 86.8635 126.39208 81.8535 138.58008 86.6875 C 139.35708 84.4645 140.68108 82.7885 140.58008 79.6875 C 138.29008 77.8465 132.42708 75.8185 129.58008 77.6875 C 127.96308 75.3045 125.98808 73.2795 124.58008 70.6875 C 111.98408 64.9495 94.826078 63.7755 84.580078 55.6875 C 58.965078 51.3165 47.780078 69.3755 31.580078 77.6875 C 28.605078 85.1435 23.434078 95.4105 23.580078 102.6875 C 18.877078 104.9845 17.654078 110.7615 10.580078 110.6875 C 9.5960782 113.7035 8.2040781 116.3115 4.5800781 116.6875 C -1.8259219 129.0865 -1.5329219 143.5805 5.5800781 155.6875 C 12.942078 160.6585 16.961078 168.9725 23.580078 174.6875 C 21.133078 178.9875 16.017078 182.7965 15.580078 187.6875 C 14.934078 194.9185 21.821078 198.3465 22.580078 205.6875 C 28.519078 206.5565 29.470078 213.2115 35.580078 214.6875 C 41.938078 216.2235 48.242078 212.6565 56.580078 213.6875 C 59.478078 216.7895 63.822078 218.4455 65.580078 222.6875 C 63.792078 227.2335 62.852078 232.6255 58.580078 234.6875 C 57.982078 241.4235 55.527078 246.3015 51.580078 249.6875 C 50.700078 259.4735 48.064078 267.5045 44.580078 274.6875 L 44.580078 282.6875 C 39.479078 284.9205 37.506078 290.2805 31.580078 291.6875 C 27.155078 305.4805 19.826078 311.1745 21.580078 327.6875 C 21.720078 329.0085 23.372078 328.9215 23.580078 329.6875 C 23.907078 330.8935 21.851078 331.6435 22.580078 333.6875 C 23.173078 335.3525 25.501078 338.2675 26.580078 340.6875 C 32.588078 354.1675 44.293078 361.1805 53.580078 368.6875 C 59.288078 392.9795 76.008078 406.2595 88.580078 423.6875 C 95.248078 426.4565 98.205076 433.1535 103.58008 437.6875 C 111.47608 444.3485 123.40508 445.8855 129.58008 454.6875 C 124.02108 457.0115 122.02867 462.62375 118.82617 462.90625 C 115.62367 463.18875 110.58008 470.6875 110.58008 470.6875 C 99.668076 480.7755 86.656078 488.7625 85.580078 508.6875 C 76.613078 517.3425 67.021078 535.4615 79.580078 546.6875 L 83.580078 546.6875 C 85.825078 544.2655 86.714078 540.4885 90.580078 539.6875 C 96.047078 543.3155 91.063078 552.3165 92.580078 560.6875 C 100.53708 575.0255 116.88708 588.3605 139.58008 581.6875 C 140.32708 576.7085 143.12108 576.6425 142.58008 574.6875 C 139.94908 565.1835 129.71308 563.8365 126.58008 555.6875 C 157.10608 546.5465 175.49508 525.2695 195.58008 505.6875 C 195.41708 498.8585 201.13008 497.9045 202.58008 492.6875 C 202.18008 486.6215 203.84608 482.6195 206.58008 479.6875 C 216.85808 478.8345 231.75808 481.7755 242.58008 483.6875 C 262.01808 504.9155 284.50808 523.0935 303.58008 544.6875 C 310.92308 544.6785 310.01908 552.9145 318.58008 551.6875 C 321.18408 547.9585 320.90208 541.3435 324.58008 538.6875 C 330.51508 539.0855 332.36308 543.5715 335.58008 546.6875 C 331.97008 550.4105 331.04508 556.8195 331.58008 564.6875 C 339.88608 574.6825 349.90908 587.2775 366.58008 585.6875 C 371.22508 578.7775 381.18408 569.5485 374.58008 557.6875 C 381.97808 552.7515 386.64408 545.0855 397.58008 543.6875 C 399.55308 539.6605 401.95508 536.0625 406.58008 534.6875 C 407.86108 527.7085 412.91408 522.0995 414.58008 514.6875 C 415.26608 511.6405 412.88008 507.1385 416.58008 504.6875 C 413.29208 502.9755 415.00008 496.2675 414.58008 491.6875 C 410.12008 488.5425 407.41908 483.9375 402.58008 483.6875 C 393.87008 483.2375 390.02608 494.2785 382.58008 496.6875 C 381.92008 501.3615 379.25408 504.0275 374.58008 504.6875 C 370.09208 487.5095 359.98008 475.9535 350.58008 463.6875 C 360.13408 459.9075 367.80508 454.2455 378.58008 451.6875 C 379.15408 448.0905 383.15608 449.1025 385.58008 447.6875 C 387.44908 446.5965 388.60108 441.8975 392.58008 443.6875 C 399.96008 431.0675 415.52508 426.6325 421.58008 412.6875 C 423.93808 412.3785 423.44008 409.2145 426.58008 409.6875 C 429.47608 399.3945 439.91008 390.8525 444.58008 378.6875 C 446.31308 374.1725 445.79708 367.9345 447.58008 362.6875 C 448.67608 359.4625 451.62708 356.8495 452.58008 353.6875 C 454.59408 347.0095 455.43408 339.4165 456.58008 332.6875 C 458.85208 319.3545 457.63108 304.4975 456.58008 294.6875 C 455.31608 282.8995 457.19408 270.1955 454.58008 259.6875 C 453.96608 257.2195 451.22408 254.3775 450.58008 251.6875 C 450.21408 250.1555 451.09708 248.1685 450.58008 246.6875 C 448.85808 241.7525 444.26508 237.4875 445.58008 231.6875 C 447.83508 227.9425 452.48008 226.5875 452.58008 220.6875 C 451.17708 216.0905 445.67008 215.5975 442.58008 212.6875 C 442.36008 209.4675 444.34908 208.4565 443.58008 204.6875 C 441.31808 202.2825 438.32808 200.6055 436.58008 197.6875 C 436.09708 194.5375 439.64908 195.4235 438.58008 191.6875 C 432.12808 185.7625 434.12908 177.5165 430.58008 168.6875 C 422.57808 165.3565 414.89408 161.7065 405.58008 159.6875 C 390.35308 139.9135 370.13308 125.1345 349.58008 110.6875 L 344.58008 110.6875 C 343.44208 106.4925 337.28808 107.3125 336.58008 102.6875 C 332.31008 103.3615 328.75008 100.0175 330.58008 97.6875 C 332.19108 99.7425 335.59408 100.0065 339.58008 99.6875 C 356.88008 96.4585 373.84308 101.3835 392.58008 97.6875 C 393.73408 97.4595 395.29308 96.0555 396.58008 95.6875 C 400.01208 94.7055 403.73308 94.8485 406.58008 93.6875 C 408.18008 93.0345 408.72508 90.8175 410.58008 89.6875 C 415.50908 86.6855 422.95108 85.2465 423.58008 79.6875 C 424.61608 70.5255 413.76708 68.1145 405.58008 67.6875 C 395.38708 67.1555 379.23308 68.9345 367.58008 72.6875 C 365.37708 73.3965 363.75508 75.1155 361.58008 75.6875 C 358.91108 76.3895 355.92108 75.8905 353.58008 76.6875 C 348.09908 78.5545 344.11608 83.6615 338.58008 82.6875 C 345.72808 70.5025 358.39908 63.8395 365.58008 51.6875 C 367.98908 52.0965 367.75408 49.8615 370.58008 50.6875 C 372.25208 46.3595 374.62808 42.7355 379.58008 41.6875 C 380.81008 37.2515 383.50808 34.2815 387.58008 32.6875 C 394.30608 22.2805 387.62608 10.3205 378.58008 7.6875 C 377.35108 7.3295 374.30108 7.6955 372.58008 7.6875 C 364.66108 7.6505 359.64708 7.6365 353.58008 8.6875 C 340.31408 10.9855 327.83808 19.5075 317.58008 22.6875 C 314.43908 23.6615 309.85108 26.4845 307.58008 22.6875 C 314.75608 20.1965 321.00608 16.7795 325.58008 11.6875 L 325.58008 11.685547 C 322.00258 2.4965468 314.01414 -0.0085625 304.91992 -0.001953125 z M 311.58008 12.6875 C 307.03008 18.8115 290.94608 22.0495 290.58008 35.6875 C 288.22108 43.9955 278.01508 44.4555 271.58008 48.6875 C 266.85308 45.7475 267.76308 37.1715 266.58008 30.6875 C 258.17108 23.8825 245.22608 23.6195 232.58008 24.6875 C 216.79908 26.0205 198.01008 29.9695 181.58008 28.6875 C 181.79008 23.8975 189.36208 26.4695 190.58008 22.6875 C 208.25908 21.3665 221.05808 15.1655 238.58008 13.6875 C 242.09208 16.5095 246.32508 18.6085 249.58008 21.6875 C 266.31008 20.4355 294.96008 12.6865 311.58008 12.6875 z M 371.54297 16.619141 C 376.70672 16.717766 381.95008 17.758 382.58008 23.6875 C 381.71208 26.7565 378.25608 29.2425 375.58008 30.6875 C 372.15408 32.5385 368.08508 32.4315 364.58008 33.6875 C 361.36908 34.8385 358.10108 37.7695 354.58008 38.6875 C 351.74108 39.4275 347.45508 38.8415 343.58008 39.6875 C 338.07008 40.8905 332.67908 44.0575 323.58008 42.6875 C 321.60308 39.3315 318.53208 37.0685 316.58008 33.6875 C 307.51008 32.6175 304.97708 38.0845 296.58008 37.6875 C 294.56108 30.3355 301.15208 31.5925 306.58008 31.6875 C 312.06408 29.3655 318.97608 28.1865 325.58008 25.6875 C 327.68008 24.8935 328.96108 23.1525 330.58008 22.6875 C 333.82608 21.7545 338.40608 22.7815 341.58008 21.6875 C 343.42408 21.0525 344.88608 19.0585 346.58008 18.6875 C 351.27608 17.6605 359.84308 16.8215 366.58008 16.6875 C 368.11008 16.657 369.82172 16.586266 371.54297 16.619141 z M 230.58008 34.6875 C 228.90308 38.9565 222.56308 40.4375 221.58008 45.6875 C 220.47608 51.5815 224.28408 54.7215 225.58008 60.6875 C 234.68008 69.2545 240.69308 80.9075 250.58008 88.6875 C 227.78408 91.4815 222.97208 67.6315 207.58008 59.6875 C 206.80308 58.7975 206.50508 57.4295 206.58008 55.6875 C 198.10608 51.8285 193.14308 44.4575 186.58008 38.6875 C 193.21408 32.6315 203.67108 37.1705 213.58008 36.6875 C 219.21008 36.4135 224.36008 34.8125 230.58008 34.6875 z M 257.19922 39.527344 C 258.58873 39.508654 260.04508 39.562 261.58008 39.6875 C 260.98908 44.2785 261.89108 47.3765 263.58008 49.6875 C 256.73708 52.6675 240.98408 54.5995 233.58008 50.6875 C 241.00883 43.331375 247.47264 39.65817 257.19922 39.527344 z M 300.58008 47.6875 L 305.58008 47.6875 C 303.47608 50.5835 303.90008 56.0075 299.58008 56.6875 C 298.58608 68.3605 288.61008 71.0505 288.58008 83.6875 C 294.09008 84.1975 296.93708 82.0445 296.58008 76.6875 C 304.98208 70.4235 304.46308 55.2365 313.58008 49.6875 C 328.45608 54.2135 345.59708 51.5035 360.58008 48.6875 C 348.10408 62.2125 335.14708 75.2545 322.58008 88.6875 C 303.39908 95.4885 284.74508 94.4155 260.58008 92.6875 C 259.98308 78.6175 249.14208 74.7925 242.58008 66.6875 C 261.30408 64.4115 279.80908 61.9165 290.58008 51.6875 C 295.38208 51.8225 299.67808 51.4525 300.58008 47.6875 z M 403.07617 76.664062 C 404.26508 76.662044 405.43508 76.669875 406.58008 76.6875 C 403.69508 83.3155 393.82908 82.8125 386.58008 84.6875 C 383.46408 85.4935 380.35808 85.8515 376.58008 86.6875 C 371.37308 87.8395 360.41308 90.7295 351.58008 87.6875 C 362.98008 79.064375 385.24258 76.694341 403.07617 76.664062 z M 40.580078 83.689453 C 41.362078 88.491453 38.329078 98.090456 37.580078 104.68945 C 26.254078 101.76945 37.656078 87.929453 40.580078 83.689453 z M 210.58008 99.689453 C 224.14008 106.25645 238.76708 110.55845 260.58008 111.68945 C 280.01108 112.69745 301.32808 116.28045 315.58008 111.68945 C 319.43008 110.44945 322.91008 105.56245 326.58008 105.68945 C 331.45908 105.85945 334.71308 113.10545 339.58008 116.68945 C 340.74108 117.54445 343.30908 117.90345 344.58008 118.68945 C 346.19808 119.68945 347.14408 120.86845 348.58008 121.68945 C 352.07608 123.69045 356.07808 124.60145 357.58008 125.68945 C 360.11808 127.52845 361.23808 130.78445 363.58008 132.68945 C 366.89008 135.38245 370.81708 136.25645 373.58008 138.68945 C 374.65108 139.63245 374.11008 141.40545 375.58008 142.68945 C 376.24308 143.26945 379.00208 143.03645 379.58008 143.68945 C 380.48008 144.70645 379.62808 146.77145 380.58008 147.68945 C 386.60008 153.48945 394.03008 157.80945 399.58008 163.68945 C 401.61708 170.98545 408.71308 173.22345 411.58008 179.68945 C 409.42108 187.52945 400.18208 188.29145 400.58008 198.68945 C 400.93408 200.00245 402.34108 200.26245 402.58008 201.68945 C 416.36808 202.62745 420.08308 188.77645 430.58008 189.68945 C 429.88108 203.04345 407.80208 203.53845 405.58008 218.68945 C 417.15808 221.25745 423.20008 200.06945 435.58008 206.68945 C 432.11208 214.55445 420.27108 214.04745 420.58008 225.68945 C 428.62708 225.36545 434.61008 214.70245 443.58008 221.68945 C 441.85408 226.48145 439.98208 222.72345 435.58008 222.68945 C 430.16408 225.94045 424.97108 229.41345 422.58008 235.68945 C 422.53108 239.07145 424.90808 240.02745 426.58008 241.68945 C 430.47108 240.91345 434.76708 240.54345 436.58008 237.68945 C 441.67808 238.94845 441.13508 244.05945 442.58008 248.68945 C 445.16508 256.97245 446.69108 261.64345 447.58008 273.68945 C 448.63408 287.98245 451.18808 302.12645 449.58008 319.68945 C 449.27508 323.01545 448.18008 326.75145 447.58008 332.68945 C 446.84408 339.97345 443.93008 345.24645 441.58008 352.68945 C 440.35408 356.57245 439.64508 360.94145 438.58008 363.68945 C 438.18408 364.71145 435.82308 365.14545 435.58008 365.68945 C 434.98208 367.02445 436.30808 369.43345 435.58008 370.68945 C 433.97508 373.45945 429.09108 377.21445 429.58008 383.68945 C 426.73408 385.51045 425.93308 389.37545 422.58008 390.68945 C 421.69508 394.27645 419.44108 399.09745 417.58008 402.68945 C 417.21808 403.38945 415.52308 402.20645 415.58008 403.68945 C 415.80008 409.38645 400.76108 419.82445 394.58008 425.68945 C 393.28608 426.91745 392.75908 429.75845 391.58008 430.68945 C 390.12408 431.83845 383.72608 434.33845 381.58008 435.68945 C 378.55208 437.59545 375.83508 439.04345 373.58008 441.68945 C 366.76508 442.87445 361.22108 445.33045 357.58008 449.68945 C 345.50908 451.12445 334.10508 459.12745 320.58008 460.68945 C 318.28308 460.95545 315.01808 460.25145 312.58008 460.68945 C 308.46808 461.42645 304.64908 464.01545 300.58008 464.68945 C 297.29108 465.23445 293.85808 464.45545 290.58008 464.68945 C 281.24908 465.35545 273.87408 467.48845 264.58008 466.68945 C 264.16408 466.65345 259.74308 466.74145 259.58008 466.68945 C 258.50708 466.34645 258.88808 464.81645 257.58008 464.68945 C 248.74508 463.83445 238.03408 467.15245 230.58008 460.68945 C 212.38908 459.50445 198.14308 457.69145 182.58008 450.68945 C 181.37008 450.14545 180.70908 448.06045 179.58008 447.68945 C 176.52708 446.68545 173.35308 447.82445 170.58008 446.68945 C 169.48108 446.23945 168.09408 444.40645 166.58008 443.68945 C 162.60108 441.80445 156.10108 440.05145 151.58008 437.68945 C 149.48808 436.59545 147.55208 433.75645 145.58008 432.68945 C 140.25808 429.80845 133.75908 427.84945 128.58008 423.68945 C 123.16408 419.33845 113.42308 414.12945 106.58008 409.68945 C 106.02708 405.57645 103.71408 403.22145 103.58008 398.68945 C 101.25808 397.34445 97.902078 397.03445 95.580078 395.68945 C 94.782078 393.82145 93.909078 392.02745 93.580078 389.68945 C 83.757078 387.84545 84.185078 375.75145 77.580078 370.68945 C 76.512078 364.95445 78.972078 362.74845 79.580078 358.68945 C 71.089078 358.66845 62.652078 357.48245 52.580078 356.68945 C 46.212078 348.96745 36.376078 346.04045 32.580078 337.68945 C 31.963078 336.33145 32.965078 334.14445 32.580078 332.68945 C 29.322078 320.36645 30.907078 306.15645 37.580078 296.68945 C 45.553078 285.37845 60.185078 276.50845 68.580078 272.68945 C 65.389078 283.73245 47.818078 286.31645 45.580078 296.68945 C 41.977078 313.38645 63.532078 307.46745 73.580078 313.68945 C 64.474078 318.05545 56.986078 314.02545 47.580078 316.68945 C 45.976078 329.29545 58.775078 328.55045 69.580078 331.68945 C 73.652078 332.87245 79.814078 338.75245 86.580078 337.68945 C 85.152078 326.03645 71.654078 331.50145 65.580078 323.68945 C 67.785078 317.78645 76.808078 322.21145 82.580078 321.68945 C 88.001078 308.59145 71.771078 308.50545 66.580078 302.68945 C 68.945078 298.38745 69.252078 292.02845 72.580078 288.68945 C 69.823078 280.63045 73.014078 278.65845 72.580078 268.68945 C 73.021078 265.79745 74.688078 264.13045 77.580078 263.68945 L 77.580078 256.68945 C 81.875078 251.65145 86.290078 246.73345 88.580078 239.68945 C 88.749078 237.18645 87.044078 236.55945 85.580078 235.68945 C 88.613078 229.42545 92.180078 225.06745 96.580078 219.68945 C 102.84508 212.03245 110.49208 201.83645 116.58008 192.68945 C 120.50608 186.79045 124.88108 179.24845 131.58008 174.68945 C 132.60008 173.37545 132.56008 171.00345 133.58008 169.68945 C 145.95208 159.06145 155.84708 145.95645 167.58008 134.68945 C 172.74708 134.85645 172.20008 129.30945 177.58008 129.68945 C 183.33108 120.44045 193.04008 115.14945 199.58008 106.68945 C 204.00608 105.11545 207.18508 102.29445 210.58008 99.689453 z M 417.07422 169.57031 C 422.42918 169.75722 424.69608 173.0312 427.58008 175.68945 C 426.56108 186.08645 415.93708 191.93445 408.58008 192.68945 C 412.12808 187.23745 419.82608 185.93545 420.58008 177.68945 C 417.42008 176.18945 413.14008 175.79945 414.58008 169.68945 C 415.48195 169.57933 416.30922 169.54361 417.07422 169.57031 z M 133.01367 461.92578 C 136.40492 461.91203 139.98508 464.31945 138.58008 469.68945 C 134.42508 472.73245 132.59308 470.24445 128.58008 468.68945 C 126.42008 464.37445 129.62242 461.93953 133.01367 461.92578 z M 146.06445 464.45508 C 149.05168 464.38424 149.0127 467.33958 152.58008 466.68945 C 153.24408 472.01945 151.99808 475.44045 148.58008 476.68945 C 139.98008 474.57945 138.61008 470.37945 144.58008 464.68945 C 145.1497 464.53645 145.63771 464.4652 146.06445 464.45508 z M 340.95117 467.12891 C 343.22319 466.9107 346.37633 468.87258 347.58008 470.68945 C 348.30908 473.41845 345.59308 472.70245 345.58008 474.68945 C 341.59208 475.67745 342.56808 471.70145 338.58008 472.68945 C 337.95008 468.78695 339.18405 467.29863 340.95117 467.12891 z M 161.61133 467.96289 C 162.9028 467.99168 164.26133 468.50195 165.58008 469.68945 C 166.87208 474.64745 163.16008 474.60245 163.58008 478.68945 C 149.63289 481.68477 154.63736 467.80745 161.61133 467.96289 z M 330.13281 471.87109 C 332.77116 472.026 335.01641 475.10723 335.58008 477.68945 C 332.21808 481.90445 326.16008 475.64745 327.58008 472.68945 C 328.25883 472.19445 328.9387 471.94249 329.59961 471.88086 C 329.77861 471.86417 329.95692 471.86077 330.13281 471.87109 z M 174.08789 472.13672 C 174.28792 472.12936 174.48772 472.13459 174.6875 472.15234 C 176.14045 472.28148 177.56133 473.0832 178.58008 474.68945 C 178.46808 479.28145 173.20308 482.79945 168.58008 479.68945 C 168.16758 475.14551 171.08752 472.24715 174.08789 472.13672 z M 185.58008 474.68945 C 187.05908 475.21045 188.10108 476.16845 189.58008 476.68945 C 188.84208 480.28445 187.59708 483.37345 182.58008 482.68945 C 181.37008 477.80945 184.84008 477.60945 185.58008 474.68945 z M 302.30469 476.67578 C 303.08984 476.69087 303.8457 476.95195 304.58008 477.68945 L 304.58008 481.68945 C 301.45908 484.08145 295.94808 482.17845 296.58008 477.68945 C 298.70445 477.79945 300.57734 476.64259 302.30469 476.67578 z M 140.58008 477.68945 C 143.65808 478.27845 147.65808 477.94545 147.58008 481.68945 C 144.47008 484.68945 138.09008 480.28945 140.58008 477.68945 z M 319.49023 478.08984 C 324.36809 478.24358 329.02539 484.73633 322.58008 486.68945 C 319.01008 485.59345 316.67608 483.25945 315.58008 479.68945 C 316.74164 478.49945 318.12444 478.0468 319.49023 478.08984 z M 123.89453 478.5332 C 125.86172 478.55268 128.15992 478.90407 129.48438 480.22852 C 129.48438 480.22852 128.70401 493.47183 124.80859 487.55078 C 120.91316 481.62973 120.29102 478.82617 120.29102 478.82617 C 120.29102 478.82617 121.92734 478.51373 123.89453 478.5332 z M 348.60742 478.90039 C 352.83366 478.85247 356.31258 483.14695 357.58008 486.68945 C 356.16108 486.60345 354.74808 486.52445 354.58008 487.68945 C 349.55008 487.05345 347.35408 483.58245 345.58008 479.68945 C 346.61695 479.1532 347.63214 478.91145 348.60742 478.90039 z M 266.65625 480.73242 C 270.13897 480.61753 274.41758 484.05695 277.58008 484.68945 C 278.59908 489.04245 275.51208 489.28745 274.58008 491.68945 C 270.72008 488.88245 265.69508 487.24145 262.58008 483.68945 C 263.65508 481.5707 265.07319 480.78464 266.65625 480.73242 z M 290.66992 481.98047 C 294.84535 482.03868 297.53008 486.44008 295.58008 490.68945 C 290.90608 490.02945 288.24008 487.36345 287.58008 482.68945 C 288.66383 482.18508 289.70636 481.96704 290.66992 481.98047 z M 155.11523 482.91406 C 157.01699 483.00254 158.82383 483.8207 160.58008 484.68945 C 160.05108 485.49345 159.53708 486.31245 159.58008 487.68945 C 155.92308 487.34645 151.68408 487.58545 151.58008 483.68945 C 152.79883 483.0707 153.97418 482.86098 155.11523 482.91406 z M 336.58008 483.68945 L 341.58008 483.68945 C 341.79108 486.60245 345.50308 488.64845 343.58008 490.68945 C 341.67308 492.56645 341.77008 490.09545 338.58008 490.68945 C 339.57008 486.69945 335.59008 487.67945 336.58008 483.68945 z M 135.69922 484.98047 C 139.31781 484.90319 144.55469 488.32227 144.55469 488.32227 C 141.46967 491.40729 138.49609 492.28906 138.49609 492.28906 C 137.50447 487.66153 133.53711 485.67773 133.53711 485.67773 C 134.11555 485.20259 134.86416 484.9983 135.69922 484.98047 z M 169.4082 485.60742 C 170.47914 485.65305 171.58508 486.00445 172.58008 486.68945 C 173.78708 490.89545 170.96508 491.07445 170.58008 493.68945 C 168.22408 493.71145 167.63608 491.96645 164.58008 492.68945 C 163.29008 488.08445 166.19539 485.47055 169.4082 485.60742 z M 309.10352 485.72266 C 312.5868 485.82063 315.64758 488.87195 315.58008 492.68945 C 311.03008 495.91745 304.11008 489.48245 305.58008 486.68945 C 306.73508 485.98445 307.94242 485.69 309.10352 485.72266 z M 183.58008 487.68945 C 184.95408 494.12045 178.91208 497.84845 175.58008 493.68945 C 177.90008 491.33945 178.86008 487.62945 183.58008 487.68945 z M 191.58008 487.68945 C 194.88008 490.09545 190.30708 493.00345 189.58008 494.68945 C 186.28008 492.27945 190.85008 489.36945 191.58008 487.68945 z M 330.12695 489.08984 C 333.05418 489.21016 336.23516 491.6752 335.58008 495.68945 C 331.68908 498.33945 326.65108 495.03245 327.58008 489.68945 C 328.1632 489.33883 328.83909 489.14585 329.54688 489.09766 C 329.73856 489.0846 329.9318 489.08182 330.12695 489.08984 z M 280.58008 489.68945 C 285.65808 490.66745 289.22608 493.66745 287.58008 498.68945 C 282.19808 499.07145 279.85008 496.41945 278.58008 492.68945 C 280.72008 493.15945 280.48008 491.25945 280.58008 489.68945 z M 358.58008 491.68945 C 361.51308 493.42345 364.34408 495.25845 364.58008 499.68945 C 359.39308 500.54345 357.81508 497.78745 356.58008 494.68945 C 356.03008 492.46945 358.49008 493.25945 358.58008 491.68945 z M 132.40039 491.92188 C 134.63732 492.04178 137.23008 493.45758 138.58008 494.68945 C 137.80308 495.57945 137.50508 496.94745 137.58008 498.68945 C 136.16108 498.60345 134.74808 498.52445 134.58008 499.68945 C 131.75608 498.84645 131.82508 495.11145 128.58008 494.68945 C 129.1357 492.51945 130.66056 491.82861 132.40039 491.92188 z M 116.08203 492.29688 C 117.58703 492.30937 119.42508 493.11945 121.58008 493.68945 C 122.22908 497.33845 120.90608 499.01545 119.58008 500.68945 C 115.76808 500.50145 113.00008 499.26945 112.58008 495.68945 C 113.40508 493.06945 114.57703 492.28437 116.08203 492.29688 z M 299.58008 492.68945 C 303.89708 493.03845 306.23108 495.37245 306.58008 499.68945 C 303.41008 502.05945 295.73008 497.33945 299.58008 492.68945 z M 402.58008 492.68945 C 407.67908 497.36745 409.51608 507.39145 405.58008 516.68945 C 405.26108 517.44445 402.85808 517.98845 402.58008 518.68945 C 401.47908 521.46245 402.27708 522.14345 400.58008 524.68945 C 400.03308 525.50945 399.02108 526.02645 398.58008 526.68945 C 395.70408 531.00845 396.69608 530.79245 393.58008 533.68945 C 390.41208 536.63445 383.04608 541.31245 377.58008 543.68945 C 376.28008 548.71945 372.22008 550.98945 369.58008 554.68945 C 365.76508 554.83745 364.76508 552.17145 361.58008 551.68945 C 363.38908 544.83145 369.55308 542.32945 374.58008 538.68945 C 375.08208 534.26345 377.87108 529.43345 378.58008 525.68945 C 378.96508 523.66045 376.60108 523.37245 376.58008 522.68945 C 376.48108 519.60845 382.27608 512.98145 384.58008 509.68945 C 389.07208 503.26945 392.39908 494.24545 402.58008 492.68945 z M 152.58008 494.68945 C 154.70208 499.19145 151.54808 506.04745 144.58008 504.68945 C 143.09708 503.50545 143.02408 500.91245 141.58008 499.68945 C 143.80008 496.57945 147.91008 495.34945 152.58008 494.68945 z M 319.98828 495.99219 C 323.03706 496.03568 326.78102 500.06289 325.58008 504.68945 L 320.58008 504.68945 C 321.33708 500.93245 317.96308 501.30645 316.58008 499.68945 C 316.9857 497.03914 318.3913 495.96941 319.98828 495.99219 z M 349.01172 496.30664 C 351.18893 496.46784 353.62883 499.51258 353.58008 502.68945 C 349.63008 502.63945 347.63008 500.63945 347.58008 496.68945 C 348.0207 496.3857 348.50928 496.26944 349.01172 496.30664 z M 161.99219 496.65039 C 163.11143 496.58792 164.32008 496.8907 165.58008 497.68945 C 165.54008 504.67445 161.62608 509.59345 155.58008 507.68945 C 153.97133 504.07383 157.14213 496.92109 161.99219 496.65039 z M 128.26953 499.61914 C 130.24994 499.53255 131.95445 500.39133 132.58008 502.68945 C 134.53008 509.84945 114.85008 505.70945 124.58008 500.68945 C 125.79395 500.0632 127.08129 499.6711 128.26953 499.61914 z M 292.53906 500.08984 C 292.73279 500.0784 292.91912 500.08332 293.09961 500.10352 C 296.22815 500.45349 297.50133 505.29945 301.58008 505.68945 C 302.32508 508.76745 298.83508 507.61145 299.58008 510.68945 C 295.63608 508.30045 290.18508 507.41745 290.58008 500.68945 C 291.31273 500.30836 291.95787 500.12419 292.53906 500.08984 z M 339.58008 500.68945 C 341.91008 502.69345 345.25408 503.68145 344.58008 508.68945 C 343.41708 508.52645 342.80108 508.91045 342.58008 509.68945 C 339.48008 509.12345 339.95008 504.98545 336.58008 504.68945 C 336.88008 502.64945 339.29008 502.72945 339.58008 500.68945 z M 174.41016 500.76758 C 175.32053 500.75642 176.3632 501.02945 177.58008 501.68945 C 175.62908 507.37345 172.50808 512.15945 166.58008 508.68945 C 169.00133 506.21133 170.46518 500.81592 174.41016 500.76758 z M 107.58008 501.68945 L 111.58008 501.68945 C 113.59708 504.05845 114.47908 508.64845 111.58008 510.68945 C 109.53708 509.73245 107.62308 508.64645 105.58008 507.68945 C 106.97008 506.40945 106.19008 502.96945 107.58008 501.68945 z M 311.58008 504.68945 C 314.17008 506.09945 318.34708 505.92245 317.58008 510.68945 C 313.59208 511.23845 314.56808 511.23845 310.58008 510.68945 C 310.15008 506.81945 309.49008 507.12945 311.58008 504.68945 z M 138.58008 505.68945 C 140.48708 506.11545 140.39008 508.54645 143.58008 507.68945 C 144.22908 511.33845 142.90608 513.01545 141.58008 514.68945 C 137.87508 514.72845 135.78308 513.15345 133.58008 511.68945 C 134.62008 509.05945 137.55008 508.31945 138.58008 505.68945 z M 361.78516 505.87109 C 362.22922 505.85842 362.67019 505.85887 363.10547 505.875 C 364.71265 505.93457 366.2432 506.19445 367.58008 506.68945 C 363.29908 510.40845 361.88908 516.99845 358.58008 521.68945 C 357.17208 521.18845 352.93208 520.80045 351.58008 519.68945 C 351.01308 519.22345 347.61008 512.85445 347.58008 513.68945 C 347.74003 509.41622 355.12421 506.0612 361.78516 505.87109 z M 329.58008 506.68945 C 333.94508 507.32445 335.85308 510.41645 336.58008 514.68945 C 332.67008 519.40945 324.54008 510.66945 329.58008 506.68945 z M 119.64453 509.11523 C 121.5951 509.13132 123.59133 510.30508 124.58008 512.68945 C 124.24008 516.01545 120.79208 516.23445 119.58008 518.68945 C 117.25708 518.01245 116.90308 515.36645 114.58008 514.68945 C 114.70383 510.9882 117.13666 509.09456 119.64453 509.11523 z M 101.58008 510.68945 C 103.84308 511.75945 105.97708 512.95945 107.58008 514.68945 C 107.69408 518.13745 103.46608 517.24145 103.58008 520.68945 C 100.64808 519.95545 99.280078 517.65645 97.580078 515.68945 L 97.582031 515.68945 C 98.259031 513.35945 100.90008 513.00945 101.58008 510.68945 z M 304.58008 511.68945 C 305.89308 512.70945 308.26708 512.66945 309.58008 513.68945 L 309.58008 518.68945 C 305.02008 518.53945 300.42008 514.86945 304.58008 511.68945 z M 152.81641 512.05859 C 154.49871 512.12717 156.22492 512.69852 157.58008 513.68945 C 156.00208 516.11245 154.00208 518.11245 151.58008 519.68945 C 149.17108 520.09845 149.40608 517.86345 146.58008 518.68945 C 146.14258 514.2207 148.93506 512.20654 152.09961 512.06055 C 152.33695 512.0496 152.57608 512.0488 152.81641 512.05859 z M 320.58008 513.68945 C 323.53108 515.07145 324.62908 518.30745 327.58008 519.68945 C 327.22608 521.00245 325.81908 521.26245 325.58008 522.68945 C 321.69008 520.93945 319.15008 518.23945 320.58008 513.68945 z M 165.12109 514.89453 C 165.29975 514.88033 165.47898 514.87999 165.66016 514.89648 C 166.62641 514.98445 167.62258 515.52445 168.58008 516.68945 C 166.96008 520.70745 164.46708 523.45845 159.58008 521.68945 C 160.09336 518.64492 162.44123 515.10749 165.12109 514.89453 z M 129.6543 516.47852 C 131.83305 516.37477 134.32008 517.67445 136.58008 519.68945 C 135.48408 523.25945 133.15108 525.59345 129.58008 526.68945 C 128.50308 524.43245 125.82708 523.77645 124.58008 521.68945 C 125.60508 518.08945 127.47555 516.58227 129.6543 516.47852 z M 112.11719 519.24219 C 112.82844 519.28344 113.36008 519.63945 114.58008 520.68945 C 115.30508 523.74845 112.85508 523.63045 113.58008 526.68945 C 107.42108 528.33545 106.16708 524.76745 108.58008 519.68945 C 110.51508 519.47445 111.40594 519.20094 112.11719 519.24219 z M 95.189453 520.58203 C 97.884821 520.38687 95.617578 525.15164 98.580078 524.68945 C 97.873078 528.28445 93.887078 526.09545 92.580078 524.68945 C 92.593078 522.69945 95.309078 523.41945 94.580078 520.68945 C 94.806891 520.62933 95.009762 520.59504 95.189453 520.58203 z M 314.55273 522.32031 C 317.50586 522.25281 320.09758 525.82945 319.58008 530.68945 C 314.93708 530.33245 312.98608 527.28345 311.58008 523.68945 C 312.54258 522.76945 313.56836 522.34281 314.55273 522.32031 z M 145.05664 523.25586 C 146.36391 523.32066 147.6482 524.06523 148.58008 525.68945 C 147.85008 529.72645 143.66408 531.85045 139.58008 529.68945 C 139.60508 526.1082 142.00625 523.50801 144.49609 523.26953 C 144.68283 523.25165 144.86989 523.2466 145.05664 523.25586 z M 156.9043 526.90234 C 157.06712 526.89442 157.23055 526.8947 157.39258 526.9043 C 158.57096 526.97412 159.71133 527.51758 160.58008 528.68945 C 159.73608 531.70345 154.94208 534.32145 151.58008 531.68945 C 151.99902 529.06622 154.46188 527.02119 156.9043 526.90234 z M 120.60938 527.1543 C 122.97186 527.0518 125.49008 528.29445 126.58008 530.68945 C 125.14908 535.87245 118.63508 534.84145 115.58008 531.68945 C 116.04008 528.70445 118.24687 527.2568 120.60938 527.1543 z M 101.58008 528.68945 L 104.58008 528.68945 C 105.73108 529.87145 105.71208 532.22445 105.58008 534.68945 C 102.98108 534.09045 101.98108 535.09045 102.58008 537.68945 C 97.937076 536.09945 98.623076 531.86945 101.58008 528.68945 z M 135.59766 533.79688 C 136.62938 533.8025 137.65258 534.07195 138.58008 534.68945 C 139.05908 537.83545 137.15608 538.59845 136.58008 540.68945 C 132.02308 541.91245 132.65708 537.94645 128.58008 538.68945 C 129.34508 536.14695 132.5025 533.77999 135.59766 533.79688 z M 112.58008 535.68945 C 114.67708 537.59145 117.85508 538.41445 117.58008 542.68945 C 114.24808 543.02445 113.14408 545.58645 108.58008 544.68945 C 108.94808 542.98845 107.80008 542.80245 106.58008 542.68945 C 107.69008 539.46945 110.34008 537.77945 112.58008 535.68945 z M 145.64258 537.72461 C 146.72133 537.62336 147.94508 538.00945 148.58008 538.68945 C 148.47808 541.23445 144.85308 541.05145 143.58008 539.68945 C 143.63008 538.41445 144.56383 537.82586 145.64258 537.72461 z M 125.08398 543.61719 C 126.50023 543.61719 127.91508 543.97445 128.58008 544.68945 C 127.82208 547.26445 125.38808 548.16445 121.58008 547.68945 L 121.58008 544.68945 C 122.25008 543.97445 123.66773 543.61719 125.08398 543.61719 z M 112.10547 553.57617 C 114.35097 553.45434 117.2687 555.75064 119.58008 555.68945 C 119.42008 562.39945 128.37008 564.60945 126.58008 569.68945 C 116.73608 569.19945 113.32108 562.28145 109.58008 555.68945 C 110.20258 554.1857 111.08479 553.63155 112.10547 553.57617 z M 363.98633 559.95508 C 366.73836 559.8615 369.52695 561.19914 371.58008 564.68945 C 369.34408 571.45345 367.37008 578.47945 356.58008 576.68945 C 350.16883 569.78227 356.95335 560.19423 363.98633 559.95508 z "
     id="path172" /><metadata
     id="metadata176"><rdf:RDF><cc:Work><dc:format>image/svg+xml</dc:format><dc:type
           rdf:resource="http://purl.org/dc/dcmitype/StillImage" /><cc:license
           rdf:resource="http://creativecommons.org/publicdomain/zero/1.0/" /><dc:publisher><cc:Agent
             rdf:about="http://openclipart.org/"><dc:title>Openclipart</dc:title></cc:Agent></dc:publisher><dc:title>bag of money</dc:title><dc:date>2006-10-30T16:32:09</dc:date><dc:description>little cartoon guy carrying big bag of money with dollar sign - could easily be changed to have euro or other currency.</dc:description><dc:source>https://openclipart.org/detail/1030/bag-of-money-by-johnny_automatic</dc:source><dc:creator><cc:Agent><dc:title>johnny_automatic</dc:title></cc:Agent></dc:creator><dc:subject><rdf:Bag><rdf:li>bag</rdf:li><rdf:li>black and white</rdf:li><rdf:li>cartoon</rdf:li><rdf:li>clipart_issue</rdf:li><rdf:li>finance</rdf:li><rdf:li>line art</rdf:li><rdf:li>man</rdf:li><rdf:li>money</rdf:li><rdf:li>vintage</rdf:li></rdf:Bag></dc:subject></cc:Work><cc:License
         rdf:about="http://creativecommons.org/licenses/publicdomain/"><cc:permits
           rdf:resource="http://creativecommons.org/ns#Reproduction" /><cc:permits
           rdf:resource="http://creativecommons.org/ns#Distribution" /><cc:permits
           rdf:resource="http://creativecommons.org/ns#DerivativeWorks" /></cc:License></rdf:RDF></metadata></svg>